<?xml version="1.0" standalone="no"?>
<!DOCTYPE svg PUBLIC "-//W3C//DTD SVG 1.1//EN" "http://www.w3.org/Graphics/SVG/1.1/DTD/svg11.dtd"><svg t="1772783666776"
	class="icon" viewBox="0 0 1024 1024" version="1.1" xmlns="http://www.w3.org/2000/svg" p-id="5510"
	xmlns:xlink="http://www.w3.org/1999/xlink" width="200" height="200">
	<path
		d="M819.413 556.843c0-55.318-46.037-100.331-102.634-100.331H175.296c-56.576 0-102.592 45.013-102.592 100.33v268.63c0 55.339 45.995 100.373 102.592 100.373H716.8c56.576 0 102.635-45.034 102.635-100.373v-44.63h35.882V759.51h-35.904V556.843zM776.747 825.45c0 31.829-26.923 57.706-59.968 57.706H175.296c-33.045 0-59.925-25.877-59.925-57.706V556.843c0-31.787 26.88-57.664 59.925-57.664H716.8c33.045 0 59.968 25.877 59.968 57.664V825.45z"
		p-id="5511" fill="#ffffff"></path>
	<path
		d="M715.584 654.87a36.267 36.267 0 0 0 0 72.533 36.267 36.267 0 0 0 0-72.534z m0 51.22a14.933 14.933 0 0 1 0-29.866 14.933 14.933 0 0 1 0 29.867zM481.92 404.502h21.333v42.667H481.92z m448.043-120.576h21.333v89.195h-21.333zM481.92 270.7h21.333v89.194H481.92z m96.043-151.19h56.042V98.176h-56.042c-12.587 0-24.747 2.283-36.288 6.784l7.786 19.883a77.653 77.653 0 0 1 28.502-5.334z m-74.71 70.592c0-15.509 5.206-30.208 15.04-42.538l-16.661-13.312a88.661 88.661 0 0 0-19.712 55.85v36.011h21.333v-36.01z m175.382-91.925h89.216v21.333h-89.216z m251.328 453.333h21.333v89.174h-21.333z m0 137.366c0 24.746-13.995 48-36.544 60.714l10.453 18.582c29.248-16.448 47.424-46.827 47.424-79.296v-3.584h-21.333v3.584z m0-271.168h21.333V506.9h-21.333zM904.875 111.38a99.05 99.05 0 0 0-49.579-13.205h-42.88v21.333h42.88c13.76 0 27.2 3.563 38.87 10.326l10.709-18.454z m35.008 35.264L921.3 157.077a67.495 67.495 0 0 1 8.662 33.024v49.216h21.333v-49.216c0-15.168-3.968-30.186-11.413-43.456zM160.256 395.413a21.248 21.248 0 0 0 6.165-0.896l0.214-0.042c1.237-0.363 2.496-0.406 3.712-1.003l73.706-36.31a21.461 21.461 0 0 0-18.965-38.442l-40.341 19.883c17.088-102.23 105.92-180.438 212.906-180.438a21.419 21.419 0 1 0 0-42.858c-125.866 0-230.912 90.261-254.101 209.429l-23.317-25.75a21.44 21.44 0 0 0-31.787 28.758l55.147 60.885a21.163 21.163 0 0 0 16.661 6.784z"
		p-id="5512" fill="#ffffff"></path>
</svg>
