<?xml version="1.0" standalone="no"?>
<!DOCTYPE svg PUBLIC "-//W3C//DTD SVG 1.1//EN" "http://www.w3.org/Graphics/SVG/1.1/DTD/svg11.dtd"><svg t="1772783694846"
	class="icon" viewBox="0 0 1024 1024" version="1.1" xmlns="http://www.w3.org/2000/svg" p-id="6556"
	xmlns:xlink="http://www.w3.org/1999/xlink" width="200" height="200">
	<path
		d="M556.843 819.37c-55.339 0-100.331-45.994-100.331-102.591v-541.44c0-56.576 44.992-102.614 100.33-102.614h268.63c55.339 0 100.373 46.016 100.373 102.614V716.8c0 56.576-45.034 102.592-100.373 102.592h-44.65v35.883h-21.334v-35.883H556.843z m268.608-42.666c31.829 0 57.706-26.88 57.706-59.925v-541.44c0-33.046-25.877-59.947-57.706-59.947H556.843c-31.787 0-57.664 26.901-57.664 59.947V716.8c0 33.045 25.877 59.925 57.664 59.925H825.45z"
		p-id="6557" fill="#ffffff"></path>
	<path
		d="M654.912 715.584c0-20.01 16.256-36.288 36.245-36.288s36.246 16.299 36.246 36.288c0 19.968-16.256 36.245-36.246 36.245s-36.245-16.277-36.245-36.245z m51.179 0a14.933 14.933 0 1 0-29.867-0.043 14.933 14.933 0 0 0 29.867 0.043zM404.5 481.941h42.667v21.334h-42.667zM283.904 929.92h89.195v21.333h-89.195z m-13.227-447.979h89.195v21.334h-89.195zM119.51 577.92v56.085H98.176V577.92c0-12.544 2.261-24.747 6.741-36.245l19.883 7.744a78.656 78.656 0 0 0-5.29 28.501z m70.571-74.645c-15.51 0-30.208 5.205-42.539 15.061l-13.29-16.661a88.597 88.597 0 0 1 55.829-19.734h36.01v21.334h-36.01zM98.176 678.592h21.333v89.216H98.176zM551.509 929.92h89.174v21.333h-89.174z m137.366 0c24.746 0 48-13.995 60.714-36.501l18.582 10.453c-16.448 29.205-46.848 47.381-79.296 47.381h-3.606V929.92h3.606z m-271.19 0h89.195v21.333h-89.195zM111.36 904.875a99.072 99.072 0 0 1-13.184-49.622v-42.88h21.333v42.88c0 13.782 3.542 27.243 10.326 38.912l-18.475 10.71z m35.264 35.008l10.41-18.582a68.352 68.352 0 0 0 33.046 8.619h49.216v21.333H190.08a88.917 88.917 0 0 1-43.456-11.37z m248.768-779.606a20.544 20.544 0 0 1-0.896 6.166l-0.043 0.213c-0.362 1.237-0.405 2.517-1.002 3.733l-36.288 73.686a21.461 21.461 0 0 1-38.464-18.944l19.882-40.342c-102.208 17.088-180.437 105.92-180.437 212.907a21.44 21.44 0 0 1-42.859 0c0-125.845 90.24-230.912 209.408-254.101l-25.749-23.318a21.419 21.419 0 1 1 28.779-31.765l60.885 55.125a20.885 20.885 0 0 1 6.784 16.64z"
		p-id="6558" fill="#ffffff"></path>
</svg>
